<svg width="512" height="512" viewBox="0 0 512 512" fill="none" xmlns="http://www.w3.org/2000/svg">
<path d="M256 8L43 108V273.217C43 394.957 134.286 481.913 256 508C377.714 481.913 469 394.957 469 273.217V108L256 8Z" fill="url(#paint0_linear_863_498)"/>
<path d="M256 38L73 125.129V273.248C73 377.802 151.429 454.04 256 478C360.571 454.04 439 377.802 439 273.248V125.129L256 38Z" fill="#09090B"/>
<path fill-rule="evenodd" clip-rule="evenodd" d="M348 255.5C348 306.586 306.81 348 256 348C205.19 348 164 306.586 164 255.5C164 204.414 205.19 163 256 163C306.81 163 348 204.414 348 255.5ZM259.297 231.288C250.348 235.03 232.464 242.775 205.645 254.524C201.289 256.265 199.008 257.968 198.8 259.634C198.449 262.449 201.955 263.558 206.73 265.067C207.379 265.272 208.052 265.485 208.742 265.711C213.44 267.246 219.758 269.042 223.043 269.113C226.023 269.178 229.349 267.943 233.02 265.408C258.079 248.401 271.014 239.804 271.826 239.619C272.399 239.488 273.193 239.324 273.731 239.805C274.269 240.285 274.216 241.196 274.159 241.44C273.812 242.929 260.049 255.794 252.927 262.451C250.706 264.527 249.131 265.999 248.809 266.335C248.088 267.088 247.353 267.801 246.647 268.485C242.283 272.715 239.01 275.887 246.828 281.067C250.585 283.556 253.591 285.614 256.59 287.668C259.865 289.911 263.132 292.147 267.359 294.933C268.436 295.643 269.464 296.38 270.466 297.098C274.278 299.83 277.702 302.285 281.933 301.894C284.392 301.666 286.931 299.342 288.221 292.41C291.268 276.028 297.259 240.534 298.644 225.908C298.765 224.626 298.612 222.986 298.49 222.266C298.367 221.546 298.111 220.52 297.18 219.761C296.078 218.862 294.377 218.672 293.615 218.686C290.155 218.747 284.846 220.603 259.297 231.288Z" fill="url(#paint1_linear_863_498)"/>
<defs>
<linearGradient id="paint0_linear_863_498" x1="43" y1="8" x2="610.532" y2="418.342" gradientUnits="userSpaceOnUse">
<stop stop-color="#A78BFA"/>
<stop offset="1" stop-color="#6D28D9"/>
</linearGradient>
<linearGradient id="paint1_linear_863_498" x1="164" y1="163" x2="348.997" y2="346.997" gradientUnits="userSpaceOnUse">
<stop stop-color="#A78BFA"/>
<stop offset="1" stop-color="#6D28D9"/>
</linearGradient>
</defs>
</svg>
